<svg width="1350" height="120" viewBox="0 0 1350 120" fill="none" xmlns="http://www.w3.org/2000/svg">
<rect width="1350" height="120" fill="url(#paint0_linear_2_8)"/>
<path d="M556.017 81.2887V26.7243H562.501V64.2422H566.824V70.08H562.501V81.2887H556.017ZM532 70.08V64.2422L552.094 31.0832V42.1362L538.645 64.2422H552.094V70.08H532ZM573.955 81.2887V39.7232H580.119V81.2887H573.955ZM576.997 36.2984C576.036 36.2984 575.182 35.9611 574.435 35.2865C573.688 34.56 573.314 33.7297 573.314 32.7957C573.314 31.8616 573.688 31.0573 574.435 30.3827C575.182 29.6562 576.036 29.293 576.997 29.293C577.958 29.293 578.785 29.6562 579.479 30.3827C580.226 31.0573 580.599 31.8616 580.599 32.7957C580.599 33.7297 580.226 34.56 579.479 35.2865C578.785 35.9611 577.958 36.2984 576.997 36.2984ZM597.945 81.2887V75.4508H604.429C606.03 75.4508 607.365 75.1395 608.432 74.5168C609.499 73.8941 610.273 73.1417 610.754 72.2595C611.287 71.3772 611.554 70.521 611.554 69.6908V51.0876C611.554 50.413 611.287 49.6346 610.754 48.7524C610.22 47.8184 609.393 47.0141 608.272 46.3395C607.151 45.613 605.71 45.2497 603.949 45.2497H597.625V39.4119H603.949C606.297 39.4119 608.325 39.827 610.033 40.6573C611.794 41.4357 613.235 42.4476 614.356 43.693C615.477 44.8865 616.304 46.1319 616.838 47.4292C617.425 48.7265 617.719 49.8681 617.719 50.8541V70.0022C617.719 70.988 617.452 72.1298 616.918 73.427C616.384 74.7242 615.557 75.9696 614.436 77.1632C613.369 78.3569 611.981 79.3427 610.273 80.1211C608.565 80.8995 606.564 81.2887 604.269 81.2887H597.945ZM587.458 96V39.4119H593.862V96H587.458ZM623.802 45.0941V24H629.806V45.0941H623.802ZM651.297 81.6778V75.9957C652.418 75.9957 653.619 75.7361 654.9 75.2173C656.181 74.6985 657.275 73.9201 658.182 72.8822C659.09 71.8442 659.543 70.547 659.543 68.9903C659.543 67.7449 659.01 66.733 657.942 65.9546C656.875 65.1762 655.487 64.5275 653.779 64.0087C652.125 63.4898 650.283 63.0228 648.255 62.6076C646.281 62.1405 644.359 61.6475 642.491 61.1287C641.531 60.7655 640.437 60.2464 639.209 59.5719C638.035 58.8974 636.994 57.9373 636.087 56.6919C635.18 55.3947 634.726 53.708 634.726 51.6324C634.726 49.3492 635.153 47.4292 636.007 45.8724C636.914 44.2638 638.035 42.9665 639.369 41.9805C640.757 40.9946 642.171 40.2941 643.612 39.8789C645.107 39.4638 646.468 39.2562 647.695 39.2562V44.8605C646.468 44.8605 645.293 45.1719 644.172 45.7946C643.105 46.3654 642.225 47.1438 641.531 48.1297C640.89 49.0638 640.57 50.1276 640.57 51.3211C640.57 52.6183 641.157 53.6562 642.331 54.4346C643.559 55.213 645.373 55.9135 647.775 56.5362C650.177 57.1589 653.139 57.8855 656.661 58.7157C657.462 58.8714 658.369 59.1827 659.383 59.6497C660.397 60.065 661.384 60.6616 662.345 61.44C663.306 62.2184 664.08 63.2042 664.667 64.3978C665.307 65.5915 665.627 67.0183 665.627 68.6789C665.627 71.3772 664.987 73.7123 663.706 75.6843C662.425 77.6042 660.691 79.0831 658.502 80.1211C656.314 81.159 653.913 81.6778 651.297 81.6778ZM647.855 81.6778C644.973 81.6778 642.518 81.1069 640.49 79.9654C638.462 78.7718 636.914 77.2929 635.847 75.5287C634.833 73.7644 634.326 71.9999 634.326 70.2357L640.17 69.2238C640.17 70.521 640.57 71.6886 641.37 72.7265C642.225 73.7123 643.239 74.4907 644.413 75.0616C645.587 75.6325 646.734 75.9439 647.855 75.9957V81.6778ZM659.063 51.7103C659.063 50.0497 658.556 48.7265 657.542 47.7405C656.581 46.7546 655.46 46.0541 654.179 45.6389C652.952 45.1719 651.938 44.9384 651.137 44.9384L651.217 39.2562C653.939 39.2562 656.314 39.853 658.342 41.0465C660.37 42.1881 661.945 43.6411 663.066 45.4054C664.24 47.1697 664.827 48.96 664.827 50.7762L659.063 51.7103ZM715.181 81.2887L713.18 72.3373H700.851L702.212 66.266H711.579L702.613 26.88H709.017L721.586 81.2887H715.181ZM688.603 81.2887L699.33 35.2087H700.611L703.013 46.0281L694.927 81.2887H688.603ZM743.981 81.6778V75.6843C745.529 75.6843 746.863 75.373 747.984 74.7503C749.105 74.0758 749.959 73.2714 750.546 72.3373C751.186 71.3515 751.507 70.3914 751.507 69.4573V39.5676H757.831V70.1578C757.831 71.1437 757.538 72.2855 756.95 73.5827C756.417 74.8799 755.563 76.1514 754.389 77.3968C753.215 78.6422 751.747 79.6801 749.986 80.5103C748.278 81.2887 746.277 81.6778 743.981 81.6778ZM740.459 81.6778C738.164 81.6778 736.136 81.2887 734.375 80.5103C732.667 79.7319 731.226 78.7461 730.052 77.5524C728.931 76.307 728.077 75.0356 727.49 73.7384C726.956 72.3891 726.689 71.1958 726.689 70.1578V39.5676H732.934V69.4573C732.934 70.3396 733.254 71.2736 733.894 72.2595C734.535 73.2453 735.415 74.0758 736.536 74.7503C737.657 75.373 738.965 75.6843 740.459 75.6843V81.6778ZM780.394 81.2887C776.979 81.2369 774.337 80.6659 772.469 79.5762C770.654 78.4347 769.373 76.8519 768.626 74.8281C767.879 72.8043 767.506 70.4174 767.506 67.667V45.8724H762.302V40.0346H767.506V26.3351H773.75V40.0346H778.873V45.8724H773.75V68.4454C773.75 70.4174 774.203 72.052 775.111 73.3492C776.071 74.5946 777.913 75.2173 780.635 75.2173H781.595L783.036 81.2887H780.394ZM800.028 81.3665C797.947 81.3665 796.052 81.0033 794.344 80.2768C792.69 79.5502 791.275 78.5904 790.101 77.3968C788.927 76.1514 788.02 74.8021 787.379 73.3492C786.739 71.8963 786.419 70.4431 786.419 68.9903V51.9438C786.419 50.4908 786.712 49.0378 787.299 47.5849C787.886 46.08 788.767 44.7308 789.941 43.5373C791.115 42.2919 792.556 41.306 794.264 40.5795C795.972 39.8011 797.893 39.4119 800.028 39.4119V45.2497C798.427 45.2497 797.066 45.6389 795.945 46.4173C794.878 47.1438 794.05 48.0779 793.464 49.2195C792.876 50.3611 792.583 51.5286 792.583 52.7222V68.2119C792.583 69.2498 792.903 70.3396 793.544 71.4811C794.184 72.6226 795.065 73.5827 796.185 74.3611C797.306 75.1395 798.587 75.5287 800.028 75.5287V81.3665ZM803.631 81.3665V75.5287C805.125 75.5287 806.406 75.1655 807.473 74.4389C808.594 73.6605 809.448 72.7265 810.035 71.6368C810.622 70.4952 810.916 69.4055 810.916 68.3676V52.7222C810.916 51.5806 810.622 50.4389 810.035 49.2973C809.448 48.1557 808.621 47.1957 807.553 46.4173C806.486 45.6389 805.178 45.2497 803.631 45.2497V39.4119C805.819 39.4119 807.714 39.8011 809.315 40.5795C810.969 41.306 812.383 42.2919 813.558 43.5373C814.732 44.7308 815.585 46.08 816.119 47.5849C816.706 49.0378 817 50.4908 817 51.9438V68.9903C817 70.4431 816.68 71.8963 816.039 73.3492C815.452 74.8021 814.572 76.1514 813.397 77.3968C812.223 78.5904 810.809 79.5502 809.155 80.2768C807.553 81.0033 805.712 81.3665 803.631 81.3665Z" fill="white"/>
<defs>
<linearGradient id="paint0_linear_2_8" x1="1.25728e-06" y1="60.0001" x2="1350" y2="60.0001" gradientUnits="userSpaceOnUse">
<stop offset="0.151042" stop-color="#090909"/>
<stop offset="0.463542" stop-color="#BC1700"/>
<stop offset="0.874017" stop-color="#FC7022"/>
<stop offset="0.9999" stop-color="#FF0000"/>
<stop offset="1" stop-color="#FF0000"/>
</linearGradient>
</defs>
</svg>
