<svg width="738" height="661" viewBox="0 0 738 661" fill="none" xmlns="http://www.w3.org/2000/svg">
<path d="M372.167 393.056C368.5 393.056 364.766 392.614 360.995 391.734C344.255 387.812 334.407 373.77 329.151 362.906C315.219 376.87 291.506 390.176 263.943 377.906C262.427 377.234 260.969 376.525 259.568 375.786C255.73 373.755 254.266 368.989 256.297 365.156C258.329 361.312 263.084 359.848 266.922 361.885C268.011 362.458 269.141 363.01 270.318 363.541C301.922 377.598 324.188 344.598 325.125 343.181C326.844 340.577 329.917 339.217 333.031 339.759C336.109 340.29 338.578 342.582 339.333 345.618C339.391 345.858 346.203 372.124 364.579 376.425C376.584 379.269 387.324 375.602 396.453 365.592C399.375 362.373 404.339 362.144 407.547 365.071C410.755 367.998 410.995 372.977 408.068 376.18C397.985 387.269 385.516 393.055 372.167 393.055L372.167 393.056Z" fill="white"/>
<path d="M439.994 315.07C437.067 315.07 434.228 313.57 432.629 310.872C430.223 306.82 431.567 301.57 435.624 299.174C442.593 295.054 447.598 289.44 450.504 282.486C455.754 269.934 456.181 257.855 451.723 247.517C447.035 236.647 437.155 228.11 423.149 222.839C420.53 221.855 418.556 219.642 417.878 216.933C417.191 214.214 417.878 211.339 419.707 209.23C420.722 208.074 421.649 207.543 422.941 206.813C439.321 197.501 464.764 177.381 451.097 147.168C445.133 133.965 435.717 125.517 423.149 122.037C407.122 117.6 387.456 121.938 370.57 133.662C368.112 135.355 364.956 135.673 362.221 134.449C359.487 133.23 357.602 130.694 357.216 127.73C355.768 116.329 350.175 100.438 343.686 94.6675C336.227 88.0424 327.738 85.3393 319.092 86.8445C308.998 88.6049 299.696 96.0738 293.566 107.339C291.31 111.485 286.112 113.001 281.972 110.751C277.826 108.495 276.295 103.298 278.55 99.1569C287.191 83.3023 300.889 72.6783 316.143 70.0063C329.889 67.6417 343.695 71.8344 355.039 81.8917C363.393 89.3292 368.695 102.356 371.618 113.132C390.045 103.621 410.311 100.783 427.701 105.574C445.149 110.397 458.627 122.35 466.674 140.137C478.851 167.049 470.138 193.85 443.466 213.82C454.539 220.674 462.706 229.804 467.435 240.757C473.769 255.445 473.373 272.164 466.284 289.09C461.925 299.507 454.545 307.856 444.347 313.882C442.972 314.69 441.473 315.07 439.994 315.07Z" fill="white"/>
<path d="M225.367 202.123C213.471 202.123 201.242 198.951 190.102 192.805C175.602 184.816 165.17 171.863 160.742 156.316C156.283 140.685 158.299 124.128 166.403 109.696C168.726 105.582 173.929 104.113 178.044 106.425C182.158 108.738 183.622 113.946 181.315 118.061C175.455 128.498 173.992 140.425 177.179 151.645C180.351 162.764 187.872 172.066 198.356 177.847C211.283 184.988 225.892 186.941 238.482 183.181C248.122 180.321 255.498 174.514 259.82 166.374C262.857 160.692 264.138 154.353 263.638 147.535C263.294 142.822 266.826 138.733 271.539 138.379C276.211 138.015 280.341 141.582 280.685 146.28C281.414 156.239 279.425 165.968 274.914 174.416C268.492 186.505 257.278 195.443 243.352 199.578C237.576 201.27 231.513 202.124 225.368 202.124L225.367 202.123Z" fill="white"/>
<path d="M467.274 542.91C453.878 529.806 437.571 523.139 418.847 523.139C399.596 523.139 382.998 529.816 369.53 542.91C356.128 556.139 349.295 572.598 349.295 591.795C349.295 610.544 356.113 626.858 369.53 640.254C382.999 653.718 399.556 660.56 418.847 660.56C437.582 660.56 453.91 653.712 467.3 640.274C480.727 626.873 487.535 610.566 487.535 591.795C487.514 572.56 480.721 556.087 467.274 542.91ZM439.211 612.274C433.586 617.925 426.784 620.69 418.836 620.69C410.883 620.69 404.096 617.92 398.424 612.274C392.763 606.576 389.95 599.805 389.95 591.795C389.95 583.92 392.778 577.144 398.424 571.478C404.107 565.79 410.893 562.889 418.836 562.889C426.779 562.889 433.591 565.796 439.211 571.478C444.893 577.155 447.737 583.915 447.737 591.795C447.727 599.806 444.893 606.582 439.211 612.274Z" fill="white"/>
<path d="M693.087 315.963H737.338V278.239L561.951 278.244C550.592 278.244 535.43 282.479 528.216 294.495L474.028 394.954L394.127 277.407L373.33 291.543L452.736 408.35H347.804C320.591 408.35 298.507 428.636 298.507 453.688V460.944H298.622V482.465V514.512H278.179V554.465C278.179 568.564 285.304 575.694 299.444 575.694H318.991C320.694 551.897 331.626 531.648 351.704 514.902C371.84 498.236 393.079 491.142 418.021 491.142C449.005 491.142 479.027 504.278 497.61 528.481C517.932 554.981 514.745 586.752 514.745 586.752L737.332 586.835L737.327 404.995L679.223 404.703L679.202 329.849C679.202 322.151 685.384 315.958 693.082 315.958L693.087 315.963ZM512.78 404.843L551.994 324.275C555.811 318.202 560.728 316.374 567.504 316.374H630.723C641.52 316.374 646.89 321.76 646.89 332.562L646.947 404.833H512.787L512.78 404.843Z" fill="white"/>
<path d="M349.94 274.776H244.768C251.909 266.646 257.904 257.25 262.242 246.891C276.43 255.084 295.534 259.235 309.258 258.495C330.867 257.37 348.722 246.152 358.236 227.719C367.741 209.307 366.794 187.031 355.741 169.605C353.215 165.61 347.929 164.417 343.945 166.964C339.955 169.49 338.778 174.766 341.304 178.756C349.116 191.073 349.788 206.838 343.043 219.876C336.382 232.777 323.741 240.625 308.361 241.433C295.158 242.11 273.642 236.407 263.897 227.11C261.73 225.032 258.647 224.251 255.782 225.032C252.902 225.803 250.636 228.027 249.803 230.886C242.949 254.408 226.782 273.698 206.579 282.496C190.12 289.647 172.366 289.23 156.574 281.277C115.819 260.782 125.267 220.194 134.527 197.829C135.215 196.173 135.668 195.074 135.73 193.423C135.829 190.631 134.543 187.964 132.308 186.282C130.069 184.61 127.142 184.141 124.496 185.011C102.621 192.292 80.4691 190.74 65.2878 180.917C53.5482 173.324 46.5171 161.281 44.9704 146.1C43.2256 128.985 47.5174 115.032 57.7256 104.616C68.8194 93.2984 84.6056 88.9801 94.5123 89.8401C94.6165 89.8453 94.705 89.8037 94.8092 89.8037C98.0123 102.981 104.82 115.392 114.799 125.517C116.47 127.21 118.679 128.064 120.882 128.064C123.054 128.064 125.21 127.241 126.877 125.6C130.236 122.283 130.283 116.882 126.965 113.517C115.132 101.512 108.897 85.501 109.872 69.5903C110.486 59.5487 114.335 45.1063 129.179 33.3303C146.569 19.5183 170.356 13.9183 191.272 18.7423C210.455 23.1486 225.621 35.9303 235.136 55.7317C237.183 59.9713 242.282 61.7733 246.537 59.7265C250.792 57.6795 252.584 52.5754 250.537 48.315C235.568 17.195 212.13 5.99233 195.1 2.08033C169.256 -3.81034 139.928 3.01262 118.569 19.9657C103.142 32.2053 93.9903 49.4657 92.8236 68.575C92.7403 69.9709 92.8028 71.3667 92.8028 72.7625C78.6468 72.5437 59.5214 78.3979 45.5214 92.6745C35.9433 102.44 25.1201 119.945 27.9694 147.852C28.2246 150.378 28.6048 152.857 29.1048 155.268C28.8236 155.425 28.5007 155.472 28.2298 155.659C8.67251 169.623 -2.02082 192.971 0.317843 216.596C3.73971 251.331 33.6205 277.419 68.4432 277.414C70.6306 277.414 72.8494 277.315 75.0734 277.106C89.7241 275.716 103.193 269.804 113.98 260.346C115.225 263.492 116.782 266.482 118.506 269.383C100.151 279.148 89.5741 299.206 89.5741 319.826V451.752C89.5064 477.722 123.413 477.722 123.413 451.752V322.58H137.293L137.381 636.34C137.381 649.715 148.251 660.564 161.616 660.564C174.996 660.564 185.189 650.387 185.189 637.023L185.122 469.863L199.023 469.78L199.044 636.34C199.044 649.714 207.445 660.563 220.846 660.563C234.221 660.563 245.081 649.715 245.081 636.34L245.013 312.5H349.92C360.337 312.5 368.78 304.062 368.78 293.645C368.796 283.223 360.358 274.776 349.941 274.776L349.94 274.776ZM109.514 240.985C109.071 241.328 108.571 241.583 108.191 242.031C99.4563 252.38 87.128 258.791 73.472 260.078C45.196 262.729 20.0507 242.499 17.332 214.922C15.7279 198.662 22.5299 182.646 35.108 172.073C39.9517 181.479 46.9777 189.442 56.0093 195.281C71.8733 205.541 92.296 208.974 113.755 205.307C109.984 218.052 108.588 230.015 109.515 240.984L109.514 240.985Z" fill="white"/>
</svg>
