<svg xmlns="http://www.w3.org/2000/svg" xmlns:svgjs="http://svgjs.com/svgjs" xmlns:xlink="http://www.w3.org/1999/xlink" width="288" height="288"><svg xmlns="http://www.w3.org/2000/svg" width="288" height="288" viewBox="0 0 64 64"><path fill="#fff" d="M62.33 23.79c-.64-.16-1.62-.31-2.65-.1-1.72.37-2.16 2.08-2.15 3.2l-.59.21-1.09-2.32v-.01l-4.45-9.48a.502.502 0 0 0-.36-.27.492.492 0 0 0-.43.12c-.69.65-1.59.86-2.78.64-.02 0-.03.01-.05 0-.04 0-.07 0-.11.01h-.04l-3.54.84-.83-.98c0-.01-.01-.01-.01-.02-.02-.02-.04-.03-.06-.05l-.09-.06c-.02-.01-.05-.01-.07-.02s-.04-.02-.07-.02c-1.32-.22-2.03-1.09-2.23-2.74a.496.496 0 0 0-.49-.43H15.6c-.96 0-1.86.58-2.29 1.49L7.06 27.1l-.58-.21c.01-1.12-.42-2.83-2.15-3.2-.83-.17-1.72-.14-2.67.11-1.09.3-1.78 1.37-1.64 2.52.04.71.34 1.28.84 1.62.14.09.29.17.42.21l4.12 1.44-.79.78c-.91.92-1.44 2.21-1.44 3.53v10.09c0 1.35.8 2.56 1.99 3.08v2.89c0 .96.75 1.73 1.66 1.73h6.22c.92 0 1.67-.77 1.67-1.73v-2.64H37.2c.18.01.35.01.53.01 1.03 0 2.09-.06 3.09-.5.96-.42 1.89-.68 2.78-.76l.3-.03c.43-.05 1.03-.34 1.77-.71.23-.11.43-.21.58-.28.86-.37 1.84-.41 2.75-.11.1.04.2.08.31.13v4.89c0 .96.74 1.73 1.66 1.73h6.21c.92 0 1.67-.77 1.67-1.73v-2.89c1.19-.51 2-1.71 2-3.08V33.9c0-1.32-.53-2.61-1.45-3.53l-.79-.78 4.09-1.43c.16-.05.31-.12.44-.22.51-.33.8-.91.84-1.58.16-1.18-.53-2.26-1.65-2.57zm-11.56-7.52 4.04 8.61-1.84 1.27-4.41-9.3c.84.02 1.58-.18 2.21-.58zm-8.11.18.47.57-4.11 2.04-5.19-.17a.413.413 0 0 0-.22.04l-4.67 2.2a.49.49 0 0 0-.24.65c.09.18.27.29.45.29.07 0 .14-.02.21-.05l4.56-2.15 4.92.16.52.89L37 22.04c-.08.04-.15.1-.2.17l-1.6 2.4c-.15.23-.09.53.14.68.08.06.18.09.27.09.16 0 .32-.08.41-.22l1.53-2.29 2.31-1.1.7 1.19c.07.13.21.22.36.24l3.44.39h.05c.25 0 .46-.18.49-.44a.485.485 0 0 0-.43-.54l-3.19-.36-1.46-2.49 4.26-2.11 3.39-.81 4.68 9.87-2.94 2.02c-.64.44-1.51.39-2.16-.12-.3-.23-.62-.44-.94-.65-.16-.09-.31-.19-.45-.29-.89-.6-2.01-.66-2.94-.16-.77.42-1.64.71-2.47.97-.27.08-.56.08-.83-.01L37.87 28c-.43-.14-.88-.2-1.34-.19-8.01.19-15.67-.1-24.75-.92l4.95-10.44h25.93zM1.59 27.21a.5.5 0 0 1-.18-.09c-.24-.16-.39-.46-.41-.89-.09-.7.29-1.31.91-1.48.79-.2 1.54-.24 2.22-.1 1.56.34 1.36 2.44 1.35 2.53-.02.22.11.43.33.51l.83.31-.05.12c-.12.25-.28.47-.45.69l-4.55-1.6zm12.13 22.75c0 .41-.31.75-.68.75H6.82c-.37 0-.67-.34-.67-.75v-2.65c.07 0 .14.01.21.01h7.36v2.64zm44.15 0c0 .41-.31.75-.69.75h-6.21c-.38 0-.68-.34-.68-.75v-4.34c.09.06.19.12.28.19l.11.07c.54.33 1.1.49 1.74.68.25.07.52.15.8.25 1.07.34 2.19.51 3.32.51h1.12c.07 0 .14-.01.21-.01v2.65zm.84-18.89c.73.73 1.15 1.77 1.15 2.83v10.09c0 1.06-.67 1.99-1.65 2.27-.17.05-.35.08-.55.08h-1.12c-1.03 0-2.04-.16-3.01-.47-.3-.1-.57-.18-.83-.25-.6-.18-1.07-.32-1.49-.57l-.1-.07c-.38-.24-.74-.47-1.11-.66 0-.01-.01-.01-.02-.02-.22-.11-.44-.22-.67-.29a4.775 4.775 0 0 0-3.45.14c-.16.06-.38.17-.63.3-.46.23-1.15.58-1.43.61l-.3.03c-.98.09-2.02.37-3.08.83-.98.44-2.06.43-3.21.42H6.36c-.18 0-.37-.03-.57-.08-.96-.28-1.64-1.21-1.64-2.27V33.9c0-1.06.42-2.1 1.16-2.83l1.25-1.24c.37-.38.68-.8.92-1.29l6.72-14.31c.27-.57.82-.94 1.4-.94h24.22c.18 1.01.57 1.7 1.04 2.18H16.42c-.19 0-.36.11-.44.28L10.59 27.1a.505.505 0 0 0 .4.71c9.43.87 17.31 1.18 25.56.99.35-.02.7.04 1.03.14l1.55.47c.46.15.95.15 1.41.01.87-.27 1.8-.58 2.65-1.04.6-.33 1.33-.29 1.92.11.15.1.3.2.46.3.3.19.6.38.88.6.53.42 1.16.63 1.79.63.53 0 1.07-.16 1.53-.48l5.47-3.75.98 2.09c0 .01.01.01.01.01l.01.03.3.64c.21.43.48.8.85 1.19 0 .01.06.07.07.08l1.25 1.24zm3.88-3.94c-.06.04-.11.07-.19.09l-4.52 1.58c-.18-.21-.34-.43-.46-.67l-.06-.13.85-.31a.5.5 0 0 0 .32-.51c-.01-.09-.2-2.19 1.35-2.53.85-.17 1.67-.04 2.2.09.63.18 1.01.8.92 1.53-.02.28-.1.65-.41.86z" class="color000 svgShape"/><path fill="#fff" d="M57.87 47.31v2.65c0 .41-.31.75-.69.75h-6.21c-.38 0-.68-.34-.68-.75v-4.34c.09.06.19.12.28.19l.11.07c.54.33 1.1.49 1.74.68.25.07.52.15.8.25 1.07.34 2.19.51 3.32.51h1.12c.07 0 .14-.01.21-.01zm-44.15.01v2.64c0 .41-.31.75-.68.75H6.82c-.37 0-.67-.34-.67-.75v-2.65c.07 0 .14.01.21.01h7.36z" class="color666 svgShape"/><path fill="#fff" d="M57.87 48.26v1.7c0 .41-.31.75-.69.75h-6.21c-.38 0-.68-.34-.68-.75v-1.7c0 .41.3.75.68.75h6.21c.38 0 .69-.34.69-.75zm-44.15 0v1.7c0 .41-.31.75-.68.75H6.82c-.37 0-.67-.34-.67-.75v-1.7c0 .41.3.75.67.75h6.22c.37 0 .68-.34.68-.75z" class="color595959 svgShape"/><path fill="#fff" d="m6.64 28-.05.12c-.12.25-.28.47-.45.69l-4.55-1.6a.5.5 0 0 1-.18-.09c-.24-.16-.39-.46-.41-.89-.09-.7.29-1.31.91-1.48.79-.2 1.54-.24 2.22-.1 1.56.34 1.36 2.44 1.35 2.53-.02.22.11.43.33.51l.83.31zM63 26.27c-.02.28-.1.65-.41.86-.06.04-.11.07-.19.09l-4.52 1.58c-.18-.21-.34-.43-.46-.67l-.06-.13.85-.31a.5.5 0 0 0 .32-.51c-.01-.09-.2-2.19 1.35-2.53.85-.17 1.67-.04 2.2.09.63.18 1.01.8.92 1.53zm-8.19-1.39-1.84 1.27-4.41-9.3c.84.02 1.58-.18 2.21-.58l4.04 8.61z" class="color5e7791 svgShape"/><path d="m52.15 26.71-2.94 2.02c-.64.44-1.51.39-2.16-.12-.3-.23-.62-.44-.94-.65-.16-.09-.31-.19-.45-.29-.89-.6-2.01-.66-2.94-.16-.77.42-1.64.71-2.47.97-.03.01-.05.02-.08.02-.25.06-.51.05-.75-.03l-.47-.14-1.08-.33c-.43-.14-.88-.2-1.34-.19-1.76.04-3.5.06-5.25.06-.38 0-.76 0-1.15-.01-5.82-.05-11.7-.37-18.35-.97l4.95-10.44h25.93l.47.57-4.11 2.04-3.4-.11-1.15-.04-.64-.02a.413.413 0 0 0-.22.04l-4.67 2.2a.49.49 0 0 0-.24.65c.09.18.27.29.45.29.07 0 .14-.02.21-.05l4.56-2.15 1.02.03 1.16.04 2.74.09.52.89L37.08 22l-.08.04c-.08.04-.15.1-.2.17l-.45.67-1.15 1.73c-.15.23-.09.53.14.68.08.06.18.09.27.09.16 0 .32-.08.41-.22l.83-1.24.67-1 .03-.05 2.31-1.1.7 1.19c.07.13.21.22.36.24l3.44.39h.05c.25 0 .46-.18.49-.44a.485.485 0 0 0-.43-.54l-3.19-.36-1.46-2.49 4.26-2.11 3.39-.81 4.68 9.87z" class="colora9d7f2 svgShape"/><path fill="#fff" d="m58.71 31.07-1.25-1.24c-.01-.01-.07-.07-.07-.08a4.67 4.67 0 0 1-.85-1.19l-.3-.64-.01-.03s-.01 0-.01-.01l-.98-2.09-5.47 3.75c-.46.32-1 .48-1.53.48-.63 0-1.26-.21-1.79-.63-.28-.22-.58-.41-.88-.6-.16-.1-.31-.2-.46-.3-.59-.4-1.32-.44-1.92-.11-.85.46-1.78.77-2.65 1.04-.46.14-.95.14-1.41-.01l-1.55-.47c-.33-.1-.68-.16-1.03-.14-8.25.19-16.13-.12-25.56-.99a.505.505 0 0 1-.4-.71l5.39-11.35c.08-.17.25-.28.44-.28h24.44c-.47-.48-.86-1.17-1.04-2.18H15.6c-.58 0-1.13.37-1.4.94L7.48 28.54c-.24.49-.55.91-.92 1.29l-1.25 1.24c-.74.73-1.16 1.77-1.16 2.83v10.09c0 1.06.68 1.99 1.64 2.27.2.05.39.08.57.08h30.85c1.15.01 2.23.02 3.21-.42 1.06-.46 2.1-.74 3.08-.83l.3-.03c.28-.03.97-.38 1.43-.61.25-.13.47-.24.63-.3 1.09-.47 2.31-.53 3.45-.14.23.07.45.18.67.29.01.01.02.01.02.02.37.19.73.42 1.11.66l.1.07c.42.25.89.39 1.49.57.26.07.53.15.83.25.97.31 1.98.47 3.01.47h1.12c.2 0 .38-.03.55-.08.98-.28 1.65-1.21 1.65-2.27V33.9c0-1.06-.42-2.1-1.15-2.83zM16.76 41.51c-.07.2-.26.34-.47.34h-.01c-2.47-.05-8.31-.27-9.18-1.33-1.36-1.63-.73-5.63-.66-6.08.02-.13.1-.25.21-.32.11-.08.24-.11.37-.08.31.06 7.48 1.49 9.41 4.74.52.86.63 1.78.33 2.73zm29.28-5.5-.98 2.1c-.41.85-1.36 1.31-2.26 1.1-1.17-.28-2.42-.37-3.7-.27-.26.02-.88.23-2.22 1.37-.9.76-2.05 1.18-3.22 1.18H20.85c-.19 0-.36-.11-.44-.28l-2.44-5.2a.5.5 0 0 1 .03-.46l1.87-3.16a.49.49 0 0 1 .42-.24h23.43c.18 0 .34.09.43.24l1.87 3.16c.08.14.09.31.02.46zm10.87 4.5c-.23.29-.75.63-2.8.91-.17.02-.33.03-.49.03-.77 0-1.47-.26-1.99-.73-.67-.61-1.54-.88-2.61-.8-.45.03-.88-.21-1.08-.63-.21-.4-.15-.86.14-1.2 2.43-2.77 8.65-4 8.91-4.05.13-.03.27 0 .37.08.11.07.19.19.21.32.08.45.71 4.44-.66 6.07z" class="color5e7791 svgShape"/><path fill="#fff" d="m54.81 24.88-.69.47-4.18-8.7c.3-.09.57-.22.83-.38l4.04 8.61z" class="color7188a1 svgShape"/><path fill="#fff" d="M59.86 40.32v3.67c0 1.06-.67 1.99-1.65 2.27-.17.05-.35.08-.55.08h-1.12c-1.03 0-2.04-.16-3.01-.47-.3-.1-.57-.18-.83-.25-.6-.18-1.07-.32-1.49-.57l-.1-.07c-.38-.24-.74-.47-1.11-.66 0-.01-.01-.01-.02-.02-.22-.11-.44-.22-.67-.29a4.775 4.775 0 0 0-3.45.14c-.16.06-.38.17-.63.3-.46.23-1.15.58-1.43.61l-.3.03c-.98.09-2.02.37-3.08.83-.98.44-2.06.43-3.21.42H6.36c-.18 0-.37-.03-.57-.08-.96-.28-1.64-1.21-1.64-2.27v-3.67c0 1.06.68 1.99 1.64 2.27.2.05.39.08.57.08h30.85c1.15.01 2.23.02 3.21-.42 1.06-.46 2.1-.74 3.08-.83l.3-.03c.28-.03.97-.38 1.43-.61.25-.13.47-.24.63-.3 1.09-.47 2.31-.53 3.45-.14.23.07.45.18.67.29.01.01.02.01.02.02.37.19.73.42 1.11.66l.1.07c.42.25.89.39 1.49.57.26.07.53.15.83.25.97.31 1.98.47 3.01.47h1.12c.2 0 .38-.03.55-.08.98-.28 1.65-1.21 1.65-2.27z" class="color506b87 svgShape"/><path fill="#fff" d="M59.86 33.9v1.9c0-1.06-.42-2.1-1.15-2.83l-1.25-1.24c-.01-.01-.07-.07-.07-.08a4.67 4.67 0 0 1-.85-1.19l-.3-.64-.01-.03s-.01 0-.01-.01l-1.41-3-.25-.52.68-.47.98 2.09c0 .01.01.01.01.01l.01.03.3.64c.21.43.48.8.85 1.19 0 .01.06.07.07.08l1.25 1.24c.73.73 1.15 1.77 1.15 2.83zM40.62 15.19H15.6c-.58 0-1.13.37-1.4.94L7.48 30.44c-.24.49-.55.91-.92 1.29l-1.25 1.24c-.74.73-1.16 1.77-1.16 2.83v-1.9c0-1.06.42-2.1 1.16-2.83l1.25-1.24c.37-.38.68-.8.92-1.29l6.72-14.31c.27-.57.82-.94 1.4-.94h24.22c.15.83.44 1.44.8 1.9z" class="color7188a1 svgShape"/><path fill="#fff" d="M16.43 38.78c-1.93-3.25-9.1-4.68-9.41-4.74-.13-.03-.26 0-.37.08-.11.07-.19.19-.21.32-.07.45-.7 4.45.66 6.08.87 1.06 6.71 1.28 9.18 1.33h.01c.21 0 .4-.14.47-.34.3-.95.19-1.87-.33-2.73zm-.52 2.08c-3.59-.09-7.58-.48-8.06-.97-.79-.95-.67-3.43-.51-4.77 1.64.38 6.81 1.74 8.25 4.16.3.51.41 1.03.32 1.58z" class="color000 svgShape"/><path fill="#212121" d="M15.91 40.86c-3.59-.09-7.58-.48-8.06-.97-.79-.95-.67-3.43-.51-4.77 1.64.38 6.81 1.74 8.25 4.16.3.51.41 1.03.32 1.58z" class="colorf2a446 svgShape"/><path d="M15.91 40.86c-.08 0-.16 0-.24-.01-.05-.17-.13-.34-.23-.51-1.42-2.35-6.4-3.7-8.19-4.13.02-.4.05-.78.09-1.09 1.64.38 6.81 1.74 8.25 4.16.3.51.41 1.03.32 1.58z" class="colorfcb653 svgShape"/><path fill="#fff" d="M57.57 34.44a.472.472 0 0 0-.21-.32.44.44 0 0 0-.37-.08c-.26.05-6.48 1.28-8.91 4.05-.29.34-.35.8-.14 1.2.2.42.63.66 1.08.63 1.07-.08 1.94.19 2.61.8.52.47 1.22.73 1.99.73.16 0 .32-.01.49-.03 2.05-.28 2.57-.62 2.8-.91 1.37-1.63.74-5.62.66-6.07zm-1.41 5.45c-.04.03-.34.3-2.19.55-.66.09-1.27-.07-1.68-.45-.78-.71-1.75-1.07-2.91-1.07-.14 0-.29 0-.43.01a.12.12 0 0 1-.13-.08c-.04-.06-.01-.1 0-.11 1.83-2.09 6.34-3.27 7.85-3.62.17 1.34.28 3.81-.51 4.77z" class="color000 svgShape"/><path fill="#212121" d="M56.16 39.89c-.04.03-.34.3-2.19.55-.66.09-1.27-.07-1.68-.45-.78-.71-1.75-1.07-2.91-1.07-.14 0-.29 0-.43.01a.12.12 0 0 1-.13-.08c-.04-.06-.01-.1 0-.11 1.83-2.09 6.34-3.27 7.85-3.62.17 1.34.28 3.81-.51 4.77z" class="colorf2a446 svgShape"/><path d="M56.77 36.21c-1.39.33-4.76 1.23-6.83 2.75-.18-.03-.37-.04-.56-.04-.14 0-.29 0-.43.01a.12.12 0 0 1-.13-.08c-.04-.06-.01-.1 0-.11 1.83-2.09 6.34-3.27 7.85-3.62.04.31.08.69.1 1.09z" class="colorfcb653 svgShape"/><path fill="#fff" d="m46.02 35.55-1.87-3.16a.495.495 0 0 0-.43-.24H20.29a.49.49 0 0 0-.42.24L18 35.55a.5.5 0 0 0-.03.46l2.44 5.2c.08.17.25.28.44.28h12.81c1.17 0 2.32-.42 3.22-1.18 1.34-1.14 1.96-1.35 2.22-1.37 1.28-.1 2.53-.01 3.7.27.9.21 1.85-.25 2.26-1.1l.98-2.1c.07-.15.06-.32-.02-.46zm-1.86 2.14c-.2.43-.68.67-1.13.56-.64-.15-1.29-.25-1.96-.3v-3.2c0-.27-.22-.49-.5-.49a.49.49 0 0 0-.49.49v3.17c-.35 0-.71.01-1.06.04-.24.02-.51.12-.81.25v-3.46a.49.49 0 0 0-.98 0v4.04c-.31.22-.63.46-.99.77-.72.61-1.64.95-2.58.95H21.17l-2.19-4.68 1.59-2.7h22.87l1.6 2.7-.88 1.86z" class="color000 svgShape"/><path fill="#fff" d="M43.44 33.13H20.57l-1.59 2.7 2.19 4.68h12.49c.94 0 1.86-.34 2.58-.95.36-.31.68-.55.99-.77v-4.04a.49.49 0 0 1 .98 0v3.46c.3-.13.57-.23.81-.25.35-.03.71-.04 1.06-.04v-3.17c0-.27.22-.49.49-.49.28 0 .5.22.5.49v3.2c.67.05 1.32.15 1.96.3.45.11.93-.13 1.13-.56l.88-1.86-1.6-2.7zm-19.51 5.76c0 .28-.22.5-.49.5s-.49-.22-.49-.5v-4.14a.49.49 0 0 1 .98 0v4.14zm2.86 0a.495.495 0 1 1-.99 0v-4.14c0-.27.22-.49.49-.49.28 0 .5.22.5.49v4.14zm2.85 0c0 .28-.22.5-.49.5s-.49-.22-.49-.5v-4.14a.49.49 0 0 1 .98 0v4.14zm2.86 0a.495.495 0 1 1-.99 0v-4.14c0-.27.22-.49.5-.49.27 0 .49.22.49.49v4.14zm2.85 0c0 .28-.22.5-.49.5s-.49-.22-.49-.5v-4.14a.49.49 0 0 1 .98 0v4.14z" class="colord6d6d6 svgShape"/><path fill="#fff" d="M37.23 38.31v.48c-.31.22-.63.46-.99.77-.72.61-1.64.95-2.58.95H21.17l-1.73-3.69 1.73 2.79h12.49c.94 0 1.86-.26 2.58-.72.36-.23.68-.41.99-.58zm7.34-1.49-.41.87c-.2.43-.68.67-1.13.56-.64-.15-1.29-.25-1.96-.3v-.28c.67.04 1.32.12 1.96.23.45.08.93-.1 1.13-.42l.41-.66zm-4.49.83v.27c-.35 0-.71.01-1.06.04-.24.02-.51.12-.81.25v-.34c.3-.1.57-.17.81-.19.35-.02.71-.03 1.06-.03z" class="colorbfbfbd svgShape"/><path fill="#fff" d="m45.04 35.83-.07.15-1.53-1.95H20.57l-1.52 1.95-.07-.15 1.59-2.7h22.87z" class="colorededed svgShape"/><path fill="#fff" d="M35.35 34.75v4.14c0 .28-.22.5-.49.5s-.49-.22-.49-.5v-4.14a.49.49 0 0 1 .98 0zm-2.85 0v4.14a.495.495 0 1 1-.99 0v-4.14c0-.27.22-.49.5-.49.27 0 .49.22.49.49zm-2.86 0v4.14c0 .28-.22.5-.49.5s-.49-.22-.49-.5v-4.14a.49.49 0 0 1 .98 0zm-2.85 0v4.14a.495.495 0 1 1-.99 0v-4.14c0-.27.22-.49.49-.49.28 0 .5.22.5.49zm-2.86 0v4.14c0 .28-.22.5-.49.5s-.49-.22-.49-.5v-4.14a.49.49 0 0 1 .98 0z" class="color000 svgShape"/><path fill="#fff" d="M35.62 18.95l-1.15-.04-1.17-2.46h1.14zM37.08 22l-.08.04c-.08.04-.15.1-.2.17l-.45.67-1.41-2.98 1.16.04.98 2.06zm3.09 6.5c-.25.06-.51.05-.75-.03l-.47-.14-2.1-4.41.67-1 2.65 5.58zM31.28 27.87c-.38 0-.76 0-1.15-.01l-5.42-11.41h1.14l5.43 11.42z" class="color93cae5 svgShape"/></svg></svg>