<?xml version="1.0" encoding="iso-8859-1"?>
<!-- Generator: Adobe Illustrator 16.0.0, SVG Export Plug-In . SVG Version: 6.00 Build 0)  -->
<!DOCTYPE svg PUBLIC "-//W3C//DTD SVG 1.1//EN" "http://www.w3.org/Graphics/SVG/1.1/DTD/svg11.dtd">
<svg version="1.1" id="Capa_1" xmlns="http://www.w3.org/2000/svg" xmlns:xlink="http://www.w3.org/1999/xlink" x="0px" y="0px"
	 width="611.9px" height="611.9px" viewBox="0 0 611.9 611.9" style="enable-background:new 0 0 611.9 611.9;" xml:space="preserve"
	>
<g>
	<path style="opacity:0.98;enable-background:new    ;" d="M460.9,94.55c0-10.5,7.899-18.6,18.6-18.6c9.7,0,18.6,8.8,18.6,18.6
		c0,9.8-7.899,18.6-18.6,18.6S460.9,105.05,460.9,94.55z M591.7,384.15v72.399c0,17.601-13.3,24.7-27.4,24.7H503.4
		c-1.7,30.9-27.4,54.7-58.301,54.7c-30.899,0-56.6-23.8-59.199-54.7h-212c-1.7,30.9-27.4,54.7-58.3,54.7s-55.7-23.8-58.3-54.7H25.5
		c-22,0-25.5-10.5-25.5-24.6v-69.7c0-12.4,0.9-21.2,7.1-33.6l61.8-121.9c7.1-15,25.5-27.4,42.4-27.4h234.9
		c16.7,0,32.6,10.5,42.399,27.4l55.7,90.9l112.101,24.6C585.4,351.55,590.8,369.15,591.7,384.15z M148.3,475.05
		c0-17.6-14.1-31.699-31.7-31.699s-31.7,14.1-31.7,31.699c0,17.601,14.1,31.7,31.7,31.7S148.3,492.851,148.3,475.05z M211.8,238.45
		h-86.6c-14.1,0.9-20.3,6.2-28.3,21.2l-27.4,61.8h142.1v-83H211.8z M398.1,321.351l-37.1-61.8c-7.1-11.5-17.6-21.2-33.6-21.2H248.8
		c0,0,0,82.1,0,83H398.1z M476.8,475.05c0-17.6-13.3-31.699-30.899-31.699c-17.601,0-31.7,14.1-31.7,31.699
		c0,17.601,14.1,31.7,31.7,31.7C462.6,506.95,476.8,492.851,476.8,475.05z M564.2,158.95c0.899-3.5,1.7-6.2,1.7-10.5
		c0-17.6-14.101-31.7-31.7-31.7c-17.601,0-32.601,14.1-32.601,32.6c0,12.4,7.101,23.8,18.601,28.3c-7.9,8.8-12.4,21.2-12.4,33.6
		c0,4.5,0.9,8.8,1.7,13.3c-19.5,0.9-34.5,16.7-34.5,36.2c0,20.3,15.9,36.2,36.2,36.2c19.5,0,35.399-15.9,36.2-35.4
		c4.5,0.9,7.899,1.7,12.399,1.7c29.101,0,52.101-23.8,52.101-52.1C612,183.75,590.8,160.75,564.2,158.95z"/>
</g>
<g>
</g>
<g>
</g>
<g>
</g>
<g>
</g>
<g>
</g>
<g>
</g>
<g>
</g>
<g>
</g>
<g>
</g>
<g>
</g>
<g>
</g>
<g>
</g>
<g>
</g>
<g>
</g>
<g>
</g>
</svg>
