<svg width="215" height="148" viewBox="0 0 215 148" fill="none" xmlns="http://www.w3.org/2000/svg">
<ellipse cx="97.6768" cy="130.113" rx="26" ry="13.5" transform="rotate(-8.30197 97.6768 130.113)" fill="#A2A2A2"/>
<ellipse cx="184.761" cy="77.8665" rx="26" ry="17.4822" transform="rotate(-15.7026 184.761 77.8665)" fill="#A2A2A2"/>
<ellipse cx="167.22" cy="47.2678" rx="26" ry="18.2864" transform="rotate(-11.9348 167.22 47.2678)" fill="#A2A2A2"/>
<ellipse cx="137.266" cy="59.1653" rx="26" ry="13.5" transform="rotate(-60.6504 137.266 59.1653)" fill="#A2A2A2"/>
<ellipse cx="162.258" cy="87.0709" rx="26" ry="13.5" transform="rotate(-24.5141 162.258 87.0709)" fill="#A2A2A2"/>
<ellipse cx="139.967" cy="72.2016" rx="34.0361" ry="22.883" transform="rotate(-40.3403 139.967 72.2016)" fill="#A2A2A2"/>
<ellipse cx="126.217" cy="99.8168" rx="31.4095" ry="21.9887" transform="rotate(-21.0871 126.217 99.8168)" fill="#A2A2A2"/>
<circle cx="63" cy="83" r="63" fill="#ACACAC"/>
<circle cx="63" cy="83" r="62" fill="black"/>
<circle cx="63" cy="83" r="43" fill="#800000"/>
<circle cx="63" cy="83" r="40" fill="white"/>
<circle cx="63" cy="82" r="8" fill="#800000"/>
<line x1="63" y1="44" x2="63" y2="76" stroke="#800000" stroke-width="4" stroke-linecap="round"/>
<line x1="77.6432" y1="45.0215" x2="64.0215" y2="71.3568" stroke="#800000" stroke-width="3" stroke-linecap="round"/>
<line x1="48.9936" y1="43.7249" x2="61.7249" y2="71.0064" stroke="#800000" stroke-width="3" stroke-linecap="round"/>
<line x1="36.6056" y1="113.189" x2="58.1695" y2="88.2071" stroke="#800000" stroke-width="4" stroke-linecap="round"/>
<line x1="26.835" y1="102.071" x2="54.3606" y2="91.051" stroke="#800000" stroke-width="3" stroke-linecap="round"/>
<line x1="48.3718" y1="120.935" x2="55.8845" y2="92.8448" stroke="#800000" stroke-width="3" stroke-linecap="round"/>
<line x1="86.924" y1="115.234" x2="68.0215" y2="88.1818" stroke="#800000" stroke-width="4" stroke-linecap="round"/>
<line x1="73.7421" y1="121.965" x2="69.8398" y2="92.5737" stroke="#800000" stroke-width="3" stroke-linecap="round"/>
<line x1="97.329" y1="105.737" x2="71.9536" y2="91.5385" stroke="#800000" stroke-width="3" stroke-linecap="round"/>
<line x1="98.765" y1="64.8844" x2="68.729" y2="82.0611" stroke="#800000" stroke-width="4" stroke-linecap="round"/>
<line x1="103.976" y1="78.5596" x2="74.3566" y2="79.9064" stroke="#800000" stroke-width="3" stroke-linecap="round"/>
<line x1="90.7945" y1="53.0893" x2="73.5136" y2="77.7416" stroke="#800000" stroke-width="3" stroke-linecap="round"/>
<line x1="26.5937" y1="64.8126" x2="56.7718" y2="81.7381" stroke="#800000" stroke-width="4" stroke-linecap="round"/>
<line x1="34.5464" y1="53.3592" x2="51.9679" y2="78.0084" stroke="#800000" stroke-width="3" stroke-linecap="round"/>
<line x1="22.6022" y1="77.8731" x2="50.606" y2="79.8569" stroke="#800000" stroke-width="3" stroke-linecap="round"/>
<path d="M64.2394 87V75.784H65.5354V83.496H66.3994V84.696H65.5354V87H64.2394ZM59.4394 84.696V83.496L63.4554 76.68V78.952L60.7674 83.496H63.4554V84.696H59.4394Z" fill="white"/>
<path d="M162.413 51.0367C162.667 51.7981 165.863 52.4215 166.654 52.5343C167.805 52.6988 168.991 52.7684 169.834 53.6113C170.553 54.3299 172.545 55.7935 172.711 56.7916C172.776 57.1787 174.113 57.3973 173.721 57.3973C172.859 57.3973 171.914 57.6589 171.264 58.2387C170.537 58.8883 168.914 59.4604 169.716 60.8637C170.013 61.3833 172.503 61.032 172.981 61.032C174.069 61.032 174.22 60.279 174.983 59.6858C175.83 59.027 176.508 58.249 176.884 57.1618C177.229 56.1659 177.123 54.5858 178.163 54.0656" stroke="#A1A1A1" stroke-width="8" stroke-linecap="round"/>
<ellipse cx="129.732" cy="121.561" rx="18.5" ry="8" transform="rotate(-11.6163 129.732 121.561)" fill="#A1A1A1"/>
<ellipse cx="158.559" cy="105.866" rx="30.806" ry="16.9324" transform="rotate(-14.5631 158.559 105.866)" fill="#A1A1A1"/>
<ellipse cx="185.5" cy="29" rx="22.5" ry="22" fill="#A1A1A1"/>
<ellipse cx="187.576" cy="88.4236" rx="6.8361" ry="10.8538" transform="rotate(16.913 187.576 88.4236)" fill="#A1A1A1"/>
<ellipse cx="158.416" cy="26.0222" rx="26.5" ry="22.5" transform="rotate(-8.1317 158.416 26.0222)" fill="#A1A1A1"/>
<path d="M140.638 108.383L124.681 96.9538L126.002 95.11L136.973 102.969L137.854 101.74L139.561 102.962L138.681 104.192L141.959 106.539L140.638 108.383ZM132.469 112.864L130.761 111.642L125.157 98.9823L128.389 101.298L132.115 109.752L134.854 105.928L136.561 107.151L132.469 112.864ZM144.291 103.283L132.136 94.5761L133.391 92.8234L145.547 101.53L144.291 103.283ZM131.754 92.9937C131.558 93.2669 131.286 93.439 130.936 93.5102C130.571 93.5705 130.253 93.5028 129.979 93.3071C129.706 93.1115 129.547 92.8368 129.502 92.483C129.442 92.1184 129.509 91.7995 129.705 91.5263C129.901 91.2532 130.175 91.094 130.529 91.0489C130.879 90.9778 131.19 91.04 131.463 91.2357C131.736 91.4313 131.903 91.7115 131.963 92.0761C132.019 92.4147 131.949 92.7206 131.754 92.9937ZM149.177 96.4614L147.47 95.2386L148.791 93.3948C149.117 92.9395 149.297 92.4949 149.333 92.061C149.368 91.627 149.305 91.2494 149.145 90.928C148.996 90.5915 148.8 90.3362 148.557 90.1623L143.117 86.2655C142.92 86.1242 142.638 86.0371 142.271 86.004C141.889 85.9601 141.485 86.0269 141.06 86.2043C140.619 86.3708 140.219 86.7044 139.861 87.2052L138.573 89.0035L136.865 87.7807L138.153 85.9824C138.632 85.3146 139.166 84.8249 139.757 84.5132C140.343 84.1755 140.932 83.9777 141.525 83.9199C142.102 83.8512 142.635 83.8769 143.123 83.9969C143.622 84.1017 144.016 84.2573 144.304 84.4639L149.904 88.4748C150.192 88.6813 150.472 88.9963 150.742 89.4198C151.013 89.8433 151.209 90.3394 151.329 90.9081C151.461 91.4616 151.467 92.0627 151.347 92.7114C151.226 93.36 150.933 94.0106 150.465 94.6632L149.177 96.4614ZM151.343 102.525L134.795 90.6716L136.099 88.8505L152.648 100.704L151.343 102.525ZM143.858 81.5277L137.69 77.1092L138.912 75.4019L145.081 79.8204L143.858 81.5277ZM160.157 81.3726L158.495 80.1823C158.724 79.8636 158.892 79.4679 159.001 78.9949C159.111 78.522 159.106 78.0479 158.987 77.5725C158.868 77.0971 158.581 76.6964 158.126 76.3703C157.762 76.1094 157.357 76.0492 156.912 76.1897C156.467 76.3302 155.995 76.5889 155.495 76.9658C155.007 77.3275 154.495 77.7532 153.96 78.243C153.422 78.7066 152.886 79.1497 152.354 79.5721C152.052 79.7692 151.678 79.9716 151.23 80.1793C150.794 80.3719 150.301 80.4667 149.752 80.4638C149.188 80.45 148.602 80.2258 147.995 79.791C147.328 79.3127 146.853 78.7891 146.572 78.2202C146.286 77.6253 146.135 77.0349 146.118 76.449C146.113 75.8479 146.196 75.299 146.368 74.8023C146.551 74.2904 146.767 73.86 147.017 73.5109L148.656 74.6849C148.406 75.0339 148.258 75.433 148.212 75.8821C148.162 76.3052 148.21 76.7186 148.357 77.1224C148.5 77.5002 148.746 77.8141 149.095 78.0641C149.474 78.3358 149.897 78.3863 150.364 78.2154C150.841 78.0295 151.416 77.6602 152.087 77.1078C152.758 76.5553 153.574 75.8653 154.534 75.0376C154.743 74.8426 155.019 74.6498 155.362 74.4593C155.69 74.2579 156.065 74.1022 156.489 73.9921C156.912 73.882 157.358 73.8684 157.826 73.9515C158.306 74.0194 158.788 74.2273 159.274 74.5751C160.063 75.1403 160.616 75.8116 160.931 76.5888C161.232 77.3552 161.311 78.1582 161.169 78.9978C161.027 79.8374 160.69 80.629 160.157 81.3726ZM159.456 82.3514C158.869 83.1709 158.202 83.7494 157.455 84.0869C156.693 84.4136 155.945 84.5439 155.212 84.4778C154.489 84.3966 153.87 84.1712 153.354 83.8016L154.249 81.9279C154.628 82.1997 155.051 82.3304 155.518 82.3202C155.98 82.2839 156.414 82.1586 156.82 81.9443C157.226 81.73 157.551 81.469 157.794 81.1611L159.456 82.3514ZM152.975 72.8873C152.489 72.5395 151.999 72.4064 151.504 72.4883C151.02 72.5549 150.587 72.7268 150.205 73.0041C149.818 73.2553 149.543 73.4947 149.38 73.7223L147.735 72.5094C148.289 71.7354 148.947 71.1851 149.709 70.8584C150.456 70.5209 151.202 70.3776 151.946 70.4285C152.701 70.4642 153.344 70.6722 153.876 71.0527L152.975 72.8873ZM173.054 63.1262L170.029 61.8203L167.518 65.3258L166.02 63.6671L167.927 61.0038L154.583 55.3032L155.887 53.4821L174.358 61.3052L173.054 63.1262ZM167.641 70.6836L156.35 57.981L156.611 57.6168L160.264 59.2003L168.929 68.8853L167.641 70.6836ZM179.034 55.0187L177.281 53.7632C177.596 53.3231 177.777 52.8785 177.823 52.4294C177.854 51.9694 177.792 51.5581 177.639 51.1956C177.481 50.8069 177.265 50.5148 176.992 50.3191L168.251 44.0582L169.539 42.2599L178.485 48.6676C178.774 48.8741 179.048 49.1967 179.307 49.6354C179.578 50.0589 179.776 50.568 179.901 51.1627C180.026 51.7575 180.031 52.3922 179.915 53.0669C179.795 53.7155 179.501 54.3661 179.034 55.0187ZM178.316 56.0203C177.849 56.6728 177.322 57.168 176.736 57.5057C176.16 57.8283 175.578 58.0315 174.99 58.1153C174.398 58.1731 173.852 58.1496 173.353 58.0448C172.85 57.914 172.446 57.7399 172.143 57.5225L163.197 51.1148L164.469 49.3392L173.21 55.6002C173.468 55.785 173.806 55.8896 174.225 55.914C174.644 55.9384 175.066 55.8619 175.491 55.6846C175.902 55.4963 176.259 55.1897 176.563 54.7648L178.316 56.0203ZM186.336 44.5835C185.625 45.5438 184.92 46.1755 184.221 46.4783C183.517 46.7552 182.794 46.7879 182.05 46.5764C181.306 46.3649 180.531 45.9711 179.727 45.3951L173.353 40.8298L172.294 42.3094L170.586 41.0865L171.646 39.6069L167.64 36.7373L168.912 34.9618L172.918 37.8314L173.961 36.3746L175.669 37.5974L174.625 39.0543L181.227 43.7826C181.803 44.1956 182.374 44.409 182.938 44.4228C183.498 44.4105 184.055 44.0174 184.609 43.2434L184.805 42.9703L186.874 43.8323L186.336 44.5835ZM190.357 39.0171C189.933 39.609 189.441 40.0716 188.881 40.405C188.331 40.7233 187.763 40.9244 187.174 41.0082C186.571 41.0812 185.992 41.0566 185.436 40.9343C184.881 40.8121 184.391 40.5988 183.966 40.2944L178.981 36.7237C178.556 36.4194 178.191 36.0316 177.886 35.5603C177.565 35.0781 177.35 34.5451 177.24 33.9613C177.115 33.3665 177.12 32.7503 177.255 32.1125C177.376 31.4638 177.653 30.836 178.088 30.229L179.795 31.4518C179.469 31.9071 179.306 32.3756 179.305 32.8573C179.3 33.313 179.405 33.7439 179.619 34.1499C179.833 34.556 180.115 34.884 180.464 35.134L184.994 38.3786C185.297 38.596 185.681 38.7332 186.146 38.7903C186.61 38.8473 187.07 38.798 187.526 38.6423C187.982 38.4867 188.356 38.204 188.65 37.7943L190.357 39.0171ZM191.091 37.9928L189.384 36.7699C189.688 36.345 189.843 35.9047 189.848 35.449C189.848 34.9673 189.749 34.5288 189.55 34.1337C189.336 33.7276 189.077 33.4159 188.773 33.1985L184.198 29.9213C183.864 29.6821 183.47 29.5265 183.017 29.4543C182.563 29.382 182.114 29.4162 181.669 29.5566C181.224 29.6971 180.844 29.9874 180.529 30.4275L178.822 29.2046C179.267 28.5824 179.767 28.1252 180.321 27.833C180.87 27.5147 181.446 27.3191 182.05 27.2461C182.638 27.1623 183.206 27.2021 183.755 27.3655C184.3 27.503 184.784 27.7239 185.209 28.0282L190.194 31.5989C190.619 31.9033 190.979 32.2987 191.273 32.7851C191.579 33.2564 191.794 33.7894 191.919 34.3841C192.029 34.968 192.022 35.5712 191.897 36.1939C191.784 36.8013 191.515 37.4009 191.091 37.9928Z" fill="#800000"/>
</svg>
