<svg width="94" height="25" viewBox="0 0 94 25" fill="none" xmlns="http://www.w3.org/2000/svg">
<path d="M8.41448 20V1.774H10.5205V14.306H11.9245V16.256H10.5205V20H8.41448ZM0.614477 16.256V14.306L7.14048 3.23V6.922L2.77248 14.306H7.14048V16.256H0.614477ZM14.2403 20V6.116H16.2423V20H14.2403ZM15.2283 4.972C14.9163 4.972 14.639 4.85933 14.3963 4.634C14.1536 4.39133 14.0323 4.114 14.0323 3.802C14.0323 3.49 14.1536 3.22133 14.3963 2.996C14.639 2.75333 14.9163 2.632 15.2283 2.632C15.5403 2.632 15.809 2.75333 16.0343 2.996C16.277 3.22133 16.3983 3.49 16.3983 3.802C16.3983 4.114 16.277 4.39133 16.0343 4.634C15.809 4.85933 15.5403 4.972 15.2283 4.972ZM22.0316 20V18.05H24.1376C24.6576 18.05 25.0909 17.946 25.4376 17.738C25.7842 17.53 26.0356 17.2787 26.1916 16.984C26.3649 16.6893 26.4516 16.4033 26.4516 16.126V9.912C26.4516 9.68667 26.3649 9.42667 26.1916 9.132C26.0182 8.82 25.7496 8.55133 25.3856 8.326C25.0216 8.08333 24.5536 7.962 23.9816 7.962H21.9276V6.012H23.9816C24.7442 6.012 25.4029 6.15067 25.9576 6.428C26.5296 6.688 26.9976 7.026 27.3616 7.442C27.7256 7.84067 27.9942 8.25667 28.1676 8.69C28.3582 9.12333 28.4536 9.50467 28.4536 9.834V16.23C28.4536 16.5593 28.3669 16.9407 28.1936 17.374C28.0202 17.8073 27.7516 18.2233 27.3876 18.622C27.0409 19.0207 26.5902 19.35 26.0356 19.61C25.4809 19.87 24.8309 20 24.0856 20H22.0316ZM18.6256 24.914V6.012H20.7056V24.914H18.6256ZM30.4292 7.91V0.863998H32.3792V7.91H30.4292ZM39.3591 20.13V18.232C39.7231 18.232 40.1131 18.1453 40.5291 17.972C40.9451 17.7987 41.3005 17.5387 41.5951 17.192C41.8898 16.8453 42.0371 16.412 42.0371 15.892C42.0371 15.476 41.8638 15.138 41.5171 14.878C41.1705 14.618 40.7198 14.4013 40.1651 14.228C39.6278 14.0547 39.0298 13.8987 38.3711 13.76C37.7298 13.604 37.1058 13.4393 36.4991 13.266C36.1871 13.1447 35.8318 12.9713 35.4331 12.746C35.0518 12.5207 34.7138 12.2 34.4191 11.784C34.1245 11.3507 33.9771 10.7873 33.9771 10.094C33.9771 9.33133 34.1158 8.69 34.3931 8.17C34.6878 7.63267 35.0518 7.19933 35.4851 6.87C35.9358 6.54067 36.3951 6.30667 36.8631 6.168C37.3485 6.02933 37.7905 5.96 38.1891 5.96V7.832C37.7905 7.832 37.4091 7.936 37.0451 8.144C36.6985 8.33467 36.4125 8.59467 36.1871 8.924C35.9791 9.236 35.8751 9.59133 35.8751 9.99C35.8751 10.4233 36.0658 10.77 36.4471 11.03C36.8458 11.29 37.4351 11.524 38.2151 11.732C38.9951 11.94 39.9571 12.1827 41.1011 12.46C41.3611 12.512 41.6558 12.616 41.9851 12.772C42.3145 12.9107 42.6351 13.11 42.9471 13.37C43.2591 13.63 43.5105 13.9593 43.7011 14.358C43.9091 14.7567 44.0131 15.2333 44.0131 15.788C44.0131 16.6893 43.8051 17.4693 43.3891 18.128C42.9731 18.7693 42.4098 19.2633 41.6991 19.61C40.9885 19.9567 40.2085 20.13 39.3591 20.13ZM38.2411 20.13C37.3051 20.13 36.5078 19.9393 35.8491 19.558C35.1905 19.1593 34.6878 18.6653 34.3411 18.076C34.0118 17.4867 33.8471 16.8973 33.8471 16.308L35.7451 15.97C35.7451 16.4033 35.8751 16.7933 36.1351 17.14C36.4125 17.4693 36.7418 17.7293 37.1231 17.92C37.5045 18.1107 37.8771 18.2147 38.2411 18.232V20.13ZM41.8811 10.12C41.8811 9.56533 41.7165 9.12333 41.3871 8.794C41.0751 8.46467 40.7111 8.23067 40.2951 8.092C39.8965 7.936 39.5671 7.858 39.3071 7.858L39.3331 5.96C40.2171 5.96 40.9885 6.15933 41.6471 6.558C42.3058 6.93933 42.8171 7.42467 43.1811 8.014C43.5625 8.60333 43.7531 9.20133 43.7531 9.808L41.8811 10.12ZM60.1069 20L59.4569 17.01H55.4529L55.8949 14.982H58.9369L56.0249 1.826H58.1049L62.1869 20H60.1069ZM51.4749 20L54.9589 4.608H55.3749L56.1549 8.222L53.5289 20H51.4749ZM69.4604 20.13V18.128C69.9631 18.128 70.3964 18.024 70.7604 17.816C71.1244 17.5907 71.4018 17.322 71.5924 17.01C71.8004 16.6807 71.9044 16.36 71.9044 16.048V6.064H73.9584V16.282C73.9584 16.6113 73.8631 16.9927 73.6724 17.426C73.4991 17.8593 73.2218 18.284 72.8404 18.7C72.4591 19.116 71.9824 19.4627 71.4104 19.74C70.8558 20 70.2058 20.13 69.4604 20.13ZM68.3164 20.13C67.5711 20.13 66.9124 20 66.3404 19.74C65.7858 19.48 65.3178 19.1507 64.9364 18.752C64.5724 18.336 64.2951 17.9113 64.1044 17.478C63.9311 17.0273 63.8444 16.6287 63.8444 16.282V6.064H65.8724V16.048C65.8724 16.3427 65.9764 16.6547 66.1844 16.984C66.3924 17.3133 66.6784 17.5907 67.0424 17.816C67.4064 18.024 67.8311 18.128 68.3164 18.128V20.13ZM81.2864 20C80.177 19.9827 79.319 19.792 78.7124 19.428C78.123 19.0467 77.707 18.518 77.4644 17.842C77.2217 17.166 77.1004 16.3687 77.1004 15.45V8.17H75.4104V6.22H77.1004V1.644H79.1284V6.22H80.7924V8.17H79.1284V15.71C79.1284 16.3687 79.2757 16.9147 79.5704 17.348C79.8824 17.764 80.4804 17.972 81.3644 17.972H81.6764L82.1444 20H81.2864ZM87.6629 20.026C86.9869 20.026 86.3715 19.9047 85.8169 19.662C85.2795 19.4193 84.8202 19.0987 84.4389 18.7C84.0575 18.284 83.7629 17.8333 83.5549 17.348C83.3469 16.8627 83.2429 16.3773 83.2429 15.892V10.198C83.2429 9.71267 83.3382 9.22733 83.5289 8.742C83.7195 8.23933 84.0055 7.78867 84.3869 7.39C84.7682 6.974 85.2362 6.64467 85.7909 6.402C86.3455 6.142 86.9695 6.012 87.6629 6.012V7.962C87.1429 7.962 86.7009 8.092 86.3369 8.352C85.9902 8.59467 85.7215 8.90667 85.5309 9.288C85.3402 9.66933 85.2449 10.0593 85.2449 10.458V15.632C85.2449 15.9787 85.3489 16.3427 85.5569 16.724C85.7649 17.1053 86.0509 17.426 86.4149 17.686C86.7789 17.946 87.1949 18.076 87.6629 18.076V20.026ZM88.8329 20.026V18.076C89.3182 18.076 89.7342 17.9547 90.0809 17.712C90.4449 17.452 90.7222 17.14 90.9129 16.776C91.1035 16.3947 91.1989 16.0307 91.1989 15.684V10.458C91.1989 10.0767 91.1035 9.69533 90.9129 9.314C90.7222 8.93267 90.4536 8.612 90.1069 8.352C89.7602 8.092 89.3355 7.962 88.8329 7.962V6.012C89.5435 6.012 90.1589 6.142 90.6789 6.402C91.2162 6.64467 91.6755 6.974 92.0569 7.39C92.4382 7.78867 92.7155 8.23933 92.8889 8.742C93.0795 9.22733 93.1749 9.71267 93.1749 10.198V15.892C93.1749 16.3773 93.0709 16.8627 92.8629 17.348C92.6722 17.8333 92.3862 18.284 92.0049 18.7C91.6235 19.0987 91.1642 19.4193 90.6269 19.662C90.1069 19.9047 89.5089 20.026 88.8329 20.026Z" fill="white"/>
</svg>
